<svg width="25" height="25" viewBox="0 0 25 25" fill="none" xmlns="http://www.w3.org/2000/svg">
<g id="Add Photo">
<path id="Oval Copy 2" fill-rule="evenodd" clip-rule="evenodd" d="M12.5001 25C19.4036 25 25 19.4036 25 12.5001C25 5.5964 19.4036 0 12.5001 0C5.59655 0 0 5.5964 0 12.5001C0 19.4036 5.59655 25 12.5001 25Z" fill="#00D9CD"/>
<g id="Group 387">
<path id="Shape sp-6539-0" fill-rule="evenodd" clip-rule="evenodd" d="M12.6086 6.48245C13.1726 6.48245 13.6299 6.93959 13.6299 7.50358V17.7157C13.6299 18.2797 13.1726 18.7368 12.6086 18.7368C12.0445 18.7368 11.5875 18.2797 11.5875 17.7157V7.50358C11.5875 6.93959 12.0445 6.48245 12.6086 6.48245Z" fill="white"/>
<path id="Shape sp-6539-0_2" fill-rule="evenodd" clip-rule="evenodd" d="M18.7357 12.6096C18.7357 13.1744 18.2791 13.6308 17.7147 13.6308H7.50267C6.93798 13.6308 6.48136 13.1744 6.48136 12.6096C6.48136 12.0449 6.93798 11.5885 7.50267 11.5885H17.7147C18.2791 11.5885 18.7357 12.0449 18.7357 12.6096Z" fill="white"/>
</g>
</g>
</svg>
